<svg height="100%" version="1.1" width="100%" xmlns="http://www.w3.org/2000/svg" style="overflow: hidden; position: relative; left: -0.554688px;" viewBox="0 0 109 109" preserveAspectRatio="xMinYMin"><desc style="-webkit-tap-highlight-color: rgba(0, 0, 0, 0);">Created with Raphaël 2.0.2</desc><defs style="-webkit-tap-highlight-color: rgba(0, 0, 0, 0);"></defs><path fill="none" stroke="rgb(234, 48, 100)" d="M29.14,17C30.26,18.12,30.87,19.62,30.87,21.66C30.87,26.11,30.78,28.75,30.78,32.06" stroke-width="8" stroke-linecap="round" stroke-linejoin="round" style="-webkit-tap-highlight-color: rgba(0, 0, 0, 0); stroke-linecap: round; stroke-linejoin: round; cursor: pointer;"></path><path fill="none" stroke="rgb(234, 48, 100)" d="M12.5,35.16C14.75,35.62,16.4,35.589999999999996,18.38,35.29C25.25,34.23,34.67,32.14,39.269999999999996,31.02C40.73,30.66,42.73,30.27,44.25,30.62" stroke-width="8" stroke-linecap="round" stroke-linejoin="round" style="-webkit-tap-highlight-color: rgba(0, 0, 0, 0); stroke-linecap: round; stroke-linejoin: round; cursor: pointer;"></path><path fill="none" stroke="rgb(234, 48, 100)" d="M30.17,48C33.5,49,35.75,50.25,39.63,51.61C41.54,52.28,42.160000000000004,53.32,42.050000000000004,55.97C41.760000000000005,62.97,34.38,87.38,29.930000000000007,91.82C26.750000000000007,95,24.940000000000005,91.08,24.140000000000008,90.25" stroke-width="8" stroke-linecap="round" stroke-linejoin="round" style="-webkit-tap-highlight-color: rgba(0, 0, 0, 0); stroke-linecap: round; stroke-linejoin: round; cursor: pointer;"></path><path fill="none" stroke="rgb(234, 48, 100)" d="M29.9,37.25C30.369999999999997,38.5,30.61,39.89,30.299999999999997,41.33C27.88,52.62,22,70,11.5,80.88" stroke-width="8" stroke-linecap="round" stroke-linejoin="round" style="-webkit-tap-highlight-color: rgba(0, 0, 0, 0); stroke-linecap: round; stroke-linejoin: round; cursor: pointer;"></path><path fill="none" stroke="rgb(32, 167, 172)" d="M57.88,14.62C57.940000000000005,15.799999999999999,57.940000000000005,16.88,57.64,18.03C56.04,24.130000000000003,51.7,35.69,45.92,43.42" stroke-width="8" stroke-linecap="round" stroke-linejoin="round" style="-webkit-tap-highlight-color: rgba(0, 0, 0, 0); stroke-linecap: round; stroke-linejoin: round; cursor: pointer;"></path><path fill="none" stroke="rgb(32, 167, 172)" d="M57.25,31.25C58.87,31.37,60.38,31.27,62.32,30.94C68.38,29.880000000000003,78.88,27.130000000000003,84.25,25.5C85.45,25.14,87.5,25,88.75,25.25" stroke-width="8" stroke-linecap="round" stroke-linejoin="round" style="-webkit-tap-highlight-color: rgba(0, 0, 0, 0); stroke-linecap: round; stroke-linejoin: round; cursor: pointer;"></path><path fill="none" stroke="rgb(32, 167, 172)" d="M68.47,32.75C68.62,33.75,68.75,35.15,68.35,36.33C65.5,44.629999999999995,58.61999999999999,58.5,47.03999999999999,67.92" stroke-width="8" stroke-linecap="round" stroke-linejoin="round" style="-webkit-tap-highlight-color: rgba(0, 0, 0, 0); stroke-linecap: round; stroke-linejoin: round; cursor: pointer;"></path><path fill="none" stroke="rgb(32, 167, 172)" d="M62.27,53.87C63.080000000000005,54.68,63.53,56,63.53,57.64C63.53,68.32,63.53,81.89,63.53,90.38C63.53,93.67999999999999,63.53,96.21,63.53,97.5" stroke-width="8" stroke-linecap="round" stroke-linejoin="round" style="-webkit-tap-highlight-color: rgba(0, 0, 0, 0); stroke-linecap: round; stroke-linejoin: round; cursor: pointer;"></path><path fill="none" stroke="rgb(32, 167, 172)" d="M86.77,41.14C86.83999999999999,41.99,86.67999999999999,42.89,86.27,43.69C84.11999999999999,47.87,81.27,51.699999999999996,75.78,56.559999999999995" stroke-width="8" stroke-linecap="round" stroke-linejoin="round" style="-webkit-tap-highlight-color: rgba(0, 0, 0, 0); stroke-linecap: round; stroke-linejoin: round; cursor: pointer;"></path><path fill="none" stroke="rgb(32, 167, 172)" d="M69.25,56.25C72.25,56.63,85.47,74.86,90.55,80.8C91.94,82.42,93.39,84.00999999999999,95,84.75" stroke-width="8" stroke-linecap="round" stroke-linejoin="round" style="-webkit-tap-highlight-color: rgba(0, 0, 0, 0); stroke-linecap: round; stroke-linejoin: round; cursor: pointer;"></path><text x="19.50" y="17.50" text-anchor="middle" font="10px &quot;Arial&quot;" stroke="none" fill="#808080" style="-webkit-tap-highlight-color: rgba(0, 0, 0, 0); text-anchor: middle; font: 5px Arial; display: none;" font-size="5px"><tspan style="-webkit-tap-highlight-color: rgba(0, 0, 0, 0);" dy="1.7128565311431885">1</tspan></text><text x="5.50" y="36.50" text-anchor="middle" font="10px &quot;Arial&quot;" stroke="none" fill="#808080" style="-webkit-tap-highlight-color: rgba(0, 0, 0, 0); text-anchor: middle; font: 5px Arial; display: none;" font-size="5px"><tspan style="-webkit-tap-highlight-color: rgba(0, 0, 0, 0);" dy="1.712855577468872">2</tspan></text><text x="34.50" y="46.63" text-anchor="middle" font="10px &quot;Arial&quot;" stroke="none" fill="#808080" style="-webkit-tap-highlight-color: rgba(0, 0, 0, 0); text-anchor: middle; font: 5px Arial; display: none;" font-size="5px"><tspan style="-webkit-tap-highlight-color: rgba(0, 0, 0, 0);" dy="1.7128506946563746">3</tspan></text><text x="22.50" y="44.50" text-anchor="middle" font="10px &quot;Arial&quot;" stroke="none" fill="#808080" style="-webkit-tap-highlight-color: rgba(0, 0, 0, 0); text-anchor: middle; font: 5px Arial; display: none;" font-size="5px"><tspan style="-webkit-tap-highlight-color: rgba(0, 0, 0, 0);" dy="1.712855577468872">4</tspan></text><text x="49.50" y="15.50" text-anchor="middle" font="10px &quot;Arial&quot;" stroke="none" fill="#808080" style="-webkit-tap-highlight-color: rgba(0, 0, 0, 0); text-anchor: middle; font: 5px Arial; display: none;" font-size="5px"><tspan style="-webkit-tap-highlight-color: rgba(0, 0, 0, 0);" dy="1.712855577468872">5</tspan></text><text x="62.25" y="27.16" text-anchor="middle" font="10px &quot;Arial&quot;" stroke="none" fill="#808080" style="-webkit-tap-highlight-color: rgba(0, 0, 0, 0); text-anchor: middle; font: 5px Arial; display: none;" font-size="5px"><tspan style="-webkit-tap-highlight-color: rgba(0, 0, 0, 0);" dy="1.7128557300567628">6</tspan></text><text x="59.25" y="41.50" text-anchor="middle" font="10px &quot;Arial&quot;" stroke="none" fill="#808080" style="-webkit-tap-highlight-color: rgba(0, 0, 0, 0); text-anchor: middle; font: 5px Arial; display: none;" font-size="5px"><tspan style="-webkit-tap-highlight-color: rgba(0, 0, 0, 0);" dy="1.712855577468872">7</tspan></text><text x="55.50" y="70.50" text-anchor="middle" font="10px &quot;Arial&quot;" stroke="none" fill="#808080" style="-webkit-tap-highlight-color: rgba(0, 0, 0, 0); text-anchor: middle; font: 5px Arial; display: none;" font-size="5px"><tspan style="-webkit-tap-highlight-color: rgba(0, 0, 0, 0);" dy="1.7128517627716064">8</tspan></text><text x="77.50" y="43.50" text-anchor="middle" font="10px &quot;Arial&quot;" stroke="none" fill="#808080" style="-webkit-tap-highlight-color: rgba(0, 0, 0, 0); text-anchor: middle; font: 5px Arial; display: none;" font-size="5px"><tspan style="-webkit-tap-highlight-color: rgba(0, 0, 0, 0);" dy="1.7128517627716064">9</tspan></text><text x="67.50" y="69.88" text-anchor="middle" font="10px &quot;Arial&quot;" stroke="none" fill="#808080" style="-webkit-tap-highlight-color: rgba(0, 0, 0, 0); text-anchor: middle; font: 5px Arial; display: none;" font-size="5px"><tspan style="-webkit-tap-highlight-color: rgba(0, 0, 0, 0);" dy="1.7128545093536331">10</tspan></text></svg>
